# vtk DataFile Version 2.0
made_with_cad_to_dagmc_package, Created by Gmsh 4.13.1 
ASCII
DATASET UNSTRUCTURED_GRID
POINTS 14 double
-0.5 -0.5 0.5
-0.5 -0.5 -0.5
-0.5 0.5 0.5
-0.5 0.5 -0.5
0.5 -0.5 0.5
0.5 -0.5 -0.5
0.5 0.5 0.5
0.5 0.5 -0.5
-0.5 0 0
0.5 0 0
0 -0.5 0
0 0.5 0
0 0 -0.5
0 0 0.5

CELLS 68 268
1 0
1 1
1 2
1 3
1 4
1 5
1 6
1 7
2 1 0
2 0 2
2 3 2
2 1 3
2 5 4
2 4 6
2 7 6
2 5 7
2 1 5
2 0 4
2 3 7
2 2 6
3 1 0 8
3 8 0 2
3 8 3 1
3 2 3 8
3 5 9 4
3 9 6 4
3 9 5 7
3 6 9 7
3 0 1 10
3 10 4 0
3 10 1 5
3 5 4 10
3 2 11 3
3 11 2 6
3 11 7 3
3 7 11 6
3 12 1 3
3 5 1 12
3 3 7 12
3 12 7 5
3 13 2 0
3 4 13 0
3 2 13 6
3 13 4 6
4 10 12 8 9
4 12 11 8 9
4 13 8 11 9
4 8 13 10 9
4 13 0 10 4
4 3 1 12 8
4 12 3 11 7
4 8 11 3 2
4 13 2 8 0
4 1 8 0 10
4 11 2 13 6
4 10 1 12 5
4 6 4 13 9
4 7 6 11 9
4 9 4 10 5
4 9 12 7 5
4 11 3 12 8
4 8 1 12 10
4 2 8 11 13
4 8 13 0 10
4 4 10 13 9
4 13 11 6 9
4 11 12 7 9
4 9 10 12 5

CELL_TYPES 68
1
1
1
1
1
1
1
1
3
3
3
3
3
3
3
3
3
3
3
3
5
5
5
5
5
5
5
5
5
5
5
5
5
5
5
5
5
5
5
5
5
5
5
5
10
10
10
10
10
10
10
10
10
10
10
10
10
10
10
10
10
10
10
10
10
10
10
10
